<svg
  xmlns="http://www.w3.org/2000/svg"
  viewBox="0 0 120 120"
  width="120"
  height="120"
  fill="none"
  role="img"
  aria-label="ClearShield Auto Glass logo"
>
  <defs>
    <linearGradient id="tireShade" x1="22" y1="19" x2="100" y2="103" gradientUnits="userSpaceOnUse">
      <stop stop-color="#948a7b"/>
      <stop offset="0.56" stop-color="#665748"/>
      <stop offset="1" stop-color="#3d352c"/>
    </linearGradient>
    <linearGradient id="rimRed" x1="36" y1="31" x2="86" y2="88" gradientUnits="userSpaceOnUse">
      <stop stop-color="#ff7773"/>
      <stop offset="0.44" stop-color="#ef2f33"/>
      <stop offset="1" stop-color="#c71920"/>
    </linearGradient>
    <clipPath id="tireClip">
      <circle cx="60" cy="60" r="51"/>
    </clipPath>
  </defs>

  <circle cx="60" cy="60" r="51" fill="url(#tireShade)"/>
  <g clip-path="url(#tireClip)">
    <path d="M21 56c2.5-24.9 21.1-44 46.8-47.4 19.7 3.1 35.9 17.5 42.3 36.4-10.9-12.2-27.9-19.9-47.1-19.9-22.6 0-42.1 10.7-51.4 26.3L21 56Z" fill="#a49b8c" opacity=".45"/>
    <path d="M30.7 28.2c6.5-8.5 18.1-14 27.9-15.4 4.3-.6 5.7 4.6 1.9 6.2-13.5 5.6-23.4 12-29 22.5-1.7 3.4-6.1 1.1-5.2-2.2 1-3.8 2.4-7.5 4.4-11.1Z" fill="#f1efec" opacity=".54"/>
    <circle cx="60" cy="60" r="37.3" fill="#6c5a49"/>
    <path d="M12 13l10 25M66 3 52 24M102 13 81 23M119 43l-27-3M117 70l-24-15M101 110l-10-25M56 119l10-27M10 101l27-14M0 61l24 17M8 32l22 19" stroke="#211b16" stroke-width="7.8" stroke-linecap="round" opacity=".82"/>
    <path d="M23 84c13.7 14.7 39 20.2 60.8 10.8" stroke="#b4aa9b" stroke-width="5" stroke-linecap="round" opacity=".38"/>
  </g>

  <circle cx="60" cy="60" r="33.8" fill="#f04a4c"/>
  <circle cx="60" cy="60" r="30.4" fill="none" stroke="#ff8983" stroke-width="3.8"/>
  <circle cx="60" cy="60" r="26.4" fill="#cfcac3"/>
  <path d="M60 33.6c3.1 19.8 3.1 32.9 0 52.7m-25-34.9c18.5 7.6 29.9 14.3 45.8 26.6M39.6 77.9C55.5 65.7 66.8 59 85.3 51.4" stroke="#ff8580" stroke-width="5.4" stroke-linecap="round"/>
  <path d="M59.8 39.3c2.4 16.3 2.3 26.2-.3 42.4m-20-27.1c14.8 5.9 23.2 10.8 35.7 20.7M44.8 75.2c12.8-10 21.1-14.8 35.7-20.5" stroke="#d82228" stroke-width="8" stroke-linecap="round"/>
  <circle cx="60" cy="60" r="15.9" fill="url(#rimRed)"/>
  <circle cx="60" cy="60" r="7.5" fill="#aaa194"/>
  <circle cx="60" cy="60" r="34" fill="none" stroke="#ef252c" stroke-width="5.4"/>
  <circle cx="60" cy="60" r="41.8" fill="none" stroke="#ff7773" stroke-width="4.5"/>
  <path d="M27.5 36.2c2.6-3.4 5.7-6.4 9.1-9.1M20.1 48.6l5.1-8.2M90 78.6l5.1-7.5" stroke="#2e2720" stroke-width="5.3" stroke-linecap="round" opacity=".35"/>
  <circle cx="95" cy="68" r="4.2" fill="#c5bdb1"/>
  <circle cx="84" cy="82" r="3.9" fill="#c5bdb1"/>
  <path d="M90.2 77.8 95 71.2" stroke="#c5bdb1" stroke-width="5.8" stroke-linecap="round"/>
  <circle cx="30" cy="37.8" r="3.9" fill="#4a3f34" opacity=".62"/>
  <circle cx="24.8" cy="51.7" r="3.7" fill="#4a3f34" opacity=".62"/>
</svg>
